<?xml version="1.0" encoding="UTF-8"?>
<svg id="Layer_2" data-name="Layer 2" xmlns="http://www.w3.org/2000/svg" viewBox="0 0 894 365">
  <defs>
    <style>
      .cls-1 {
        fill: #14c600;
      }

      .cls-2 {
        fill: #27c4f8;
      }

      .cls-3 {
        fill: #f5f5f5;
      }

      .cls-4 {
        fill: #77d430;
      }
    </style>
  </defs>
  <g>
    <path class="cls-3" d="M717.78,345.89c-3.7-10.77-12.24-19.3-23-23v-5.88c6.74-4.08,11.25-11.47,11.25-19.91,0-7.86-3.92-14.83-9.91-19.04,5.99-4.21,9.91-11.17,9.91-19.04s-3.92-14.82-9.91-19.04c5.99-4.21,9.91-11.17,9.91-19.03s-3.92-14.83-9.91-19.04c5.99-4.21,9.91-11.17,9.91-19.04s-3.92-14.83-9.91-19.04c5.99-4.21,9.91-11.17,9.91-19.03s-3.92-14.83-9.91-19.04c5.99-4.21,9.91-11.17,9.91-19.04s-3.92-14.82-9.91-19.03c5.99-4.21,9.91-11.17,9.91-19.04,0-8.43-4.51-15.83-11.25-19.91v-5.88c10.77-3.7,19.3-12.24,23-23h133.98c3.7,10.77,12.24,19.3,23,23v279.99c-10.77,3.7-19.3,12.24-23,23h-133.98Z"/>
    <path class="cls-2" d="M844.06,31.89c4.41,7.81,10.9,14.3,18.71,18.71v264.58c-7.81,4.41-14.3,10.9-18.71,18.71h-118.57c-3.55-6.3-8.46-11.74-14.32-15.92,4.31-5.85,6.86-13.07,6.86-20.87,0-7.01-2.05-13.54-5.59-19.04,3.54-5.49,5.59-12.03,5.59-19.03s-2.05-13.54-5.59-19.04c3.54-5.49,5.59-12.03,5.59-19.04s-2.05-13.54-5.59-19.04c3.54-5.49,5.59-12.03,5.59-19.04s-2.05-13.54-5.59-19.04c3.54-5.49,5.59-12.03,5.59-19.04s-2.05-13.54-5.59-19.03c3.54-5.49,5.59-12.03,5.59-19.04s-2.05-13.54-5.59-19.04c3.54-5.49,5.59-12.03,5.59-19.04,0-7.8-2.55-15.03-6.86-20.87,5.86-4.18,10.77-9.62,14.32-15.92h118.57M861.77,7.89h-153.99c0,13.81-11.19,25-25,25v24.54c6.21,0,11.25,5.04,11.25,11.25s-5.04,11.25-11.25,11.25v15.57c6.21,0,11.25,5.04,11.25,11.25s-5.04,11.25-11.25,11.25v15.57c6.21,0,11.25,5.04,11.25,11.25s-5.04,11.25-11.25,11.25v15.57c6.21,0,11.25,5.04,11.25,11.25s-5.04,11.25-11.25,11.25v15.57c6.21,0,11.25,5.04,11.25,11.25s-5.04,11.25-11.25,11.25v15.57c6.21,0,11.25,5.03,11.25,11.25s-5.04,11.25-11.25,11.25v15.57c6.21,0,11.25,5.03,11.25,11.25s-5.04,11.25-11.25,11.25v24.54c13.81,0,25,11.19,25,25h153.99c0-13.81,11.19-25,25-25V32.89c-13.81,0-25-11.19-25-25h0Z"/>
  </g>
  <g>
    <path class="cls-4" d="M41.77,345.89c-3.7-10.77-12.24-19.3-23-23V42.89c10.77-3.7,19.3-12.24,23-23h606c3.7,10.77,12.24,19.3,23,23v5.88c-6.74,4.08-11.25,11.48-11.25,19.91,0,7.86,3.92,14.83,9.91,19.03-5.99,4.21-9.91,11.17-9.91,19.04s3.92,14.83,9.91,19.04c-5.99,4.21-9.91,11.17-9.91,19.04s3.92,14.82,9.91,19.04c-5.99,4.21-9.91,11.17-9.91,19.03s3.92,14.83,9.91,19.04c-5.99,4.21-9.91,11.17-9.91,19.04s3.92,14.82,9.91,19.04c-5.99,4.21-9.91,11.17-9.91,19.03s3.92,14.83,9.91,19.04c-5.99,4.21-9.91,11.17-9.91,19.04,0,8.43,4.51,15.83,11.25,19.91v5.88c-10.77,3.7-19.3,12.24-23,23H41.77Z"/>
    <path class="cls-1" d="M640.07,31.89c3.55,6.3,8.46,11.74,14.32,15.92-4.31,5.85-6.86,13.07-6.86,20.87,0,7.01,2.05,13.54,5.59,19.04-3.54,5.49-5.59,12.03-5.59,19.04s2.05,13.54,5.59,19.04c-3.54,5.49-5.59,12.03-5.59,19.03s2.05,13.54,5.59,19.04c-3.54,5.49-5.59,12.03-5.59,19.04s2.05,13.54,5.59,19.04c-3.54,5.49-5.59,12.03-5.59,19.04s2.05,13.54,5.59,19.04c-3.54,5.49-5.59,12.03-5.59,19.04s2.05,13.54,5.59,19.03c-3.54,5.49-5.59,12.03-5.59,19.04,0,7.8,2.55,15.03,6.86,20.87-5.86,4.18-10.77,9.62-14.32,15.92H49.48c-4.41-7.81-10.9-14.3-18.71-18.71V50.6c7.81-4.41,14.3-10.9,18.71-18.71h590.59M657.78,7.89H31.77c0,13.81-11.19,25-25,25v300c13.81,0,25,11.19,25,25h626.01c0-13.81,11.19-25,25-25v-24.54c-6.21,0-11.25-5.04-11.25-11.25s5.04-11.25,11.25-11.25v-15.57c-6.21,0-11.25-5.04-11.25-11.25s5.04-11.25,11.25-11.25v-15.57c-6.21,0-11.25-5.04-11.25-11.25s5.04-11.25,11.25-11.25v-15.57c-6.21,0-11.25-5.04-11.25-11.25s5.04-11.25,11.25-11.25v-15.57c-6.21,0-11.25-5.04-11.25-11.25s5.04-11.25,11.25-11.25v-15.57c-6.21,0-11.25-5.03-11.25-11.25s5.04-11.25,11.25-11.25v-15.57c-6.21,0-11.25-5.03-11.25-11.25s5.04-11.25,11.25-11.25v-24.54c-13.81,0-25-11.19-25-25h0Z"/>
  </g>
  <path class="cls-3" d="M64.57,66.29h45.89v181.46h81.49v48.24h-127.38V66.29Z"/>
  <path class="cls-3" d="M319.95,66.29h65.25c55.26,0,98.03,49.77,98.03,114.47,0,61.25-38.09,115.23-98.03,115.23h-65.25V66.29ZM384.27,244.69c29.35,0,51.83-25.27,51.83-63.93,0-35.6-19.67-63.55-51.83-63.55h-18.42v127.48h18.42Z"/>
  <path class="cls-3" d="M142.94,295.99h49.33l9.05-23.74h73.99l9.37,23.74h49.33l-88.83-229.7h-14.02l-88.22,229.7ZM259.71,232.06h-44.02l21.85-58.19h.62l21.54,58.19Z"/>
  <path class="cls-3" d="M548.94,66.29h-16.67l-86.9,226.26h49.33l9.05-23.74h73.99l9.37,23.74h49.33l-87.5-226.26ZM518.11,228.61l21.85-58.19h.62l21.54,58.19h-44.02Z"/>
  <path class="cls-2" d="M758.05,54.62h17.32v45.76h45.59v14.08h-62.9v-59.85Z"/>
  <path class="cls-2" d="M787.59,120.16h3.02l34.16,59.85h-18.36l-3.49-5.98h-27.54l-3.37,5.98h-18.36l33.93-59.85ZM797.12,163.89l-8.02-14.67h-.23l-8.13,14.67h16.38Z"/>
  <path class="cls-2" d="M757.47,185.69h18.26l27.45,35.51v-35.51h17.2v59.85h-18.02l-27.56-35.61v35.61h-17.32v-59.85Z"/>
  <path class="cls-2" d="M757.59,251.23l25.37.08c21.49.06,38.06,13.08,37.99,29.94-.07,15.96-14.93,29.98-38.24,29.91l-25.37-.08.25-59.85ZM782.41,297.78c11.41.03,20.18-6.52,20.22-16.6.04-9.28-7.58-16.58-20.08-16.62l-7.16-.02-.14,33.22,7.16.02Z"/>
  <rect class="cls-4" x="642.66" y="47.89" width="12" height="269.78"/>
  <rect class="cls-3" x="711.1" y="48" width="12" height="269.78"/>
</svg>