<?xml version="1.0" encoding="UTF-8"?>
<svg id="Layer_2" data-name="Layer 2" xmlns="http://www.w3.org/2000/svg" viewBox="0 0 894 365">
  <defs>
    <style>
      .cls-1 {
        fill: #14c600;
      }

      .cls-2 {
        fill: #27c4f8;
      }

      .cls-3 {
        fill: #f5f5f5;
      }

      .cls-4 {
        fill: #77d430;
      }
    </style>
  </defs>
  <g>
    <path class="cls-3" d="M717.78,345.89c-3.7-10.77-12.24-19.3-23-23v-5.88c6.74-4.08,11.25-11.47,11.25-19.91,0-7.86-3.92-14.83-9.91-19.04,5.99-4.21,9.91-11.17,9.91-19.04s-3.92-14.82-9.91-19.04c5.99-4.21,9.91-11.17,9.91-19.03s-3.92-14.83-9.91-19.04c5.99-4.21,9.91-11.17,9.91-19.04s-3.92-14.83-9.91-19.04c5.99-4.21,9.91-11.17,9.91-19.03s-3.92-14.83-9.91-19.04c5.99-4.21,9.91-11.17,9.91-19.04s-3.92-14.82-9.91-19.03c5.99-4.21,9.91-11.17,9.91-19.04,0-8.43-4.51-15.83-11.25-19.91v-5.88c10.77-3.7,19.3-12.24,23-23h133.98c3.7,10.77,12.24,19.3,23,23v279.99c-10.77,3.7-19.3,12.24-23,23h-133.98Z"/>
    <path class="cls-2" d="M844.06,31.89c4.41,7.81,10.9,14.3,18.71,18.71v264.58c-7.81,4.41-14.3,10.9-18.71,18.71h-118.57c-3.55-6.3-8.46-11.74-14.32-15.92,4.31-5.85,6.86-13.07,6.86-20.87,0-7.01-2.05-13.54-5.59-19.04,3.54-5.49,5.59-12.03,5.59-19.03s-2.05-13.54-5.59-19.04c3.54-5.49,5.59-12.03,5.59-19.04s-2.05-13.54-5.59-19.04c3.54-5.49,5.59-12.03,5.59-19.04s-2.05-13.54-5.59-19.04c3.54-5.49,5.59-12.03,5.59-19.04s-2.05-13.54-5.59-19.03c3.54-5.49,5.59-12.03,5.59-19.04s-2.05-13.54-5.59-19.04c3.54-5.49,5.59-12.03,5.59-19.04,0-7.8-2.55-15.03-6.86-20.87,5.86-4.18,10.77-9.62,14.32-15.92h118.57M861.77,7.89h-153.99c0,13.81-11.19,25-25,25v24.54c6.21,0,11.25,5.04,11.25,11.25s-5.04,11.25-11.25,11.25v15.57c6.21,0,11.25,5.04,11.25,11.25s-5.04,11.25-11.25,11.25v15.57c6.21,0,11.25,5.04,11.25,11.25s-5.04,11.25-11.25,11.25v15.57c6.21,0,11.25,5.04,11.25,11.25s-5.04,11.25-11.25,11.25v15.57c6.21,0,11.25,5.04,11.25,11.25s-5.04,11.25-11.25,11.25v15.57c6.21,0,11.25,5.03,11.25,11.25s-5.04,11.25-11.25,11.25v15.57c6.21,0,11.25,5.03,11.25,11.25s-5.04,11.25-11.25,11.25v24.54c13.81,0,25,11.19,25,25h153.99c0-13.81,11.19-25,25-25V32.89c-13.81,0-25-11.19-25-25h0Z"/>
  </g>
  <g>
    <path class="cls-4" d="M41.77,345.89c-3.7-10.77-12.24-19.3-23-23V42.89c10.77-3.7,19.3-12.24,23-23h606c3.7,10.77,12.24,19.3,23,23v5.88c-6.74,4.08-11.25,11.48-11.25,19.91,0,7.86,3.92,14.83,9.91,19.03-5.99,4.21-9.91,11.17-9.91,19.04s3.92,14.83,9.91,19.04c-5.99,4.21-9.91,11.17-9.91,19.04s3.92,14.82,9.91,19.04c-5.99,4.21-9.91,11.17-9.91,19.03s3.92,14.83,9.91,19.04c-5.99,4.21-9.91,11.17-9.91,19.04s3.92,14.82,9.91,19.04c-5.99,4.21-9.91,11.17-9.91,19.03s3.92,14.83,9.91,19.04c-5.99,4.21-9.91,11.17-9.91,19.04,0,8.43,4.51,15.83,11.25,19.91v5.88c-10.77,3.7-19.3,12.24-23,23H41.77Z"/>
    <path class="cls-1" d="M640.07,31.89c3.55,6.3,8.46,11.74,14.32,15.92-4.31,5.85-6.86,13.07-6.86,20.87,0,7.01,2.05,13.54,5.59,19.04-3.54,5.49-5.59,12.03-5.59,19.04s2.05,13.54,5.59,19.04c-3.54,5.49-5.59,12.03-5.59,19.03s2.05,13.54,5.59,19.04c-3.54,5.49-5.59,12.03-5.59,19.04s2.05,13.54,5.59,19.04c-3.54,5.49-5.59,12.03-5.59,19.04s2.05,13.54,5.59,19.04c-3.54,5.49-5.59,12.03-5.59,19.04s2.05,13.54,5.59,19.03c-3.54,5.49-5.59,12.03-5.59,19.04,0,7.8,2.55,15.03,6.86,20.87-5.86,4.18-10.77,9.62-14.32,15.92H49.48c-4.41-7.81-10.9-14.3-18.71-18.71V50.6c7.81-4.41,14.3-10.9,18.71-18.71h590.59M657.78,7.89H31.77c0,13.81-11.19,25-25,25v300c13.81,0,25,11.19,25,25h626.01c0-13.81,11.19-25,25-25v-24.54c-6.21,0-11.25-5.04-11.25-11.25s5.04-11.25,11.25-11.25v-15.57c-6.21,0-11.25-5.04-11.25-11.25s5.04-11.25,11.25-11.25v-15.57c-6.21,0-11.25-5.04-11.25-11.25s5.04-11.25,11.25-11.25v-15.57c-6.21,0-11.25-5.04-11.25-11.25s5.04-11.25,11.25-11.25v-15.57c-6.21,0-11.25-5.04-11.25-11.25s5.04-11.25,11.25-11.25v-15.57c-6.21,0-11.25-5.03-11.25-11.25s5.04-11.25,11.25-11.25v-15.57c-6.21,0-11.25-5.03-11.25-11.25s5.04-11.25,11.25-11.25v-24.54c-13.81,0-25-11.19-25-25h0Z"/>
  </g>
  <path class="cls-3" d="M64.57,66.29h45.52v181.46h80.82v48.24h-126.34V66.29Z"/>
  <path class="cls-3" d="M317.87,66.29h64.72c54.81,0,97.23,49.77,97.23,114.47,0,61.25-37.78,115.23-97.23,115.23h-64.72V66.29ZM381.66,244.69c29.11,0,51.4-25.27,51.4-63.93,0-35.6-19.51-63.55-51.4-63.55h-18.27v127.48h18.27Z"/>
  <path class="cls-3" d="M142.3,295.99h48.93l8.98-23.74h73.39l9.29,23.74h48.93l-88.1-229.7h-13.9l-87.5,229.7ZM258.12,232.06h-43.66l21.68-58.19h.62l21.37,58.19Z"/>
  <path class="cls-3" d="M544.99,66.29h-16.54l-86.19,226.26h48.93l8.98-23.74h73.39l9.29,23.74h48.93l-86.78-226.26ZM514.41,228.61l21.68-58.19h.62l21.37,58.19h-43.66Z"/>
  <path class="cls-2" d="M766.06,54.62h14.66v45.76h38.6v14.08h-53.26v-59.85Z"/>
  <path class="cls-2" d="M791.07,120.16h2.56l28.93,59.85h-15.55l-2.95-5.98h-23.32l-2.85,5.98h-15.54l28.73-59.85ZM799.13,163.89l-6.79-14.67h-.2l-6.89,14.67h13.87Z"/>
  <path class="cls-2" d="M765.57,185.69h15.46l23.24,35.51v-35.51h14.56v59.85h-15.26l-23.34-35.61v35.61h-14.66v-59.85Z"/>
  <path class="cls-2" d="M765.67,251.23l21.48.08c18.19.06,32.23,13.08,32.17,29.94-.06,15.96-12.65,29.98-32.38,29.91l-21.48-.08.21-59.85ZM786.68,297.78c9.66.03,17.09-6.52,17.12-16.6.03-9.28-6.42-16.58-17.01-16.62l-6.06-.02-.12,33.22,6.06.02Z"/>
</svg>