<svg version="1.1" viewBox="0.0 0.0 384.0 384.0" fill="none" stroke="none" stroke-linecap="square" stroke-miterlimit="10" xmlns:xlink="http://www.w3.org/1999/xlink" xmlns="http://www.w3.org/2000/svg"><clipPath id="p.0"><path d="m0 0l384.0 0l0 384.0l-384.0 0l0 -384.0z" clip-rule="nonzero"/></clipPath><g clip-path="url(#p.0)"><path fill="#000000" fill-opacity="0.0" d="m0 0l384.0 0l0 384.0l-384.0 0z" fill-rule="evenodd"/><defs><linearGradient id="p.1" gradientUnits="userSpaceOnUse" gradientTransform="matrix(-7.432710223517714 0.0 0.0 -7.432710223517714 0.0 0.0)" spreadMethod="pad" x1="-46.462000036606476" y1="-48.17071420878056" x2="-46.462027624456304" y2="-40.738003985314045"><stop offset="0.0" stop-color="#f7d393"/><stop offset="1.0" stop-color="#fff1d7"/></linearGradient></defs><path fill="url(#p.1)" d="m345.3386 330.41583c0 15.2552185 -68.65204 27.62204 -153.3386 27.62204l0 0c-84.68656 0 -153.33858 -12.366821 -153.33858 -27.62204l0 0c0 -15.255249 68.65202 -27.62207 153.33858 -27.62207l0 0c84.686554 0 153.3386 12.366821 153.3386 27.62207z" fill-rule="evenodd"/><defs><linearGradient id="p.2" gradientUnits="userSpaceOnUse" gradientTransform="matrix(-13.05089372637442 13.047811323588242 -13.047811323588242 -13.05089372637442 0.0 0.0)" spreadMethod="pad" x1="-7.967881596365805" y1="-19.848720069239643" x2="-7.967928818979426" y2="-6.797826342950657"><stop offset="0.0" stop-color="#14c600"/><stop offset="0.5" stop-color="#77d430"/><stop offset="1.0" stop-color="#d9ead3"/></linearGradient></defs><path fill="url(#p.2)" d="m258.67694 50.76209l0 0c36.450775 36.450794 36.147614 95.84534 -0.67718506 132.66142q-52.687622 52.675186 -67.070175 143.65544q-13.454437 -90.84149 -65.60698 -142.99402l0 0c-36.450798 -36.450806 -36.14762 -95.84534 0.6771622 -132.66142l0 0c36.824776 -36.816086 96.22637 -37.112213 132.67719 -0.6614189z" fill-rule="evenodd"/><path fill="#ffffff" d="m153.38583 117.42257l0 0c0 -21.32602 17.288147 -38.614174 38.614166 -38.614174l0 0c10.241119 0 20.062775 4.068268 27.304337 11.30983c7.241562 7.241562 11.30983 17.063232 11.30983 27.304344l0 0c0 21.326027 -17.288147 38.614174 -38.614166 38.614174l0 0c-21.32602 0 -38.614166 -17.288147 -38.614166 -38.614174z" fill-rule="evenodd"/></g></svg>