<?xml version="1.0" encoding="UTF-8"?>
<svg id="Layer_1" data-name="Layer 1" xmlns="http://www.w3.org/2000/svg" viewBox="0 0 312.37 382.25">
  <defs>
    <style>
      .cls-1 {
        fill: #14c600;
      }

      .cls-2 {
        fill: #f5f5f5;
      }

      .cls-3 {
        fill: #77d430;
      }
    </style>
  </defs>
  <g>
    <path class="cls-3" d="M165.01,367.14c-6.87-7.05-16.43-11.25-26.55-11.25-1.36,0-2.71.07-4.05.22l-2.5-5.31c4.36-6.56,5.29-15.17,1.7-22.8-3.25-6.89-9.7-11.71-17.06-13,.66-1.16,1.22-2.39,1.68-3.67,2.1-5.84,1.8-12.16-.84-17.77-3.25-6.89-9.7-11.71-17.06-13,.66-1.16,1.22-2.39,1.68-3.67,2.1-5.84,1.8-12.16-.84-17.77-3.25-6.89-9.7-11.71-17.08-13,3.62-6.36,4.21-14.33.86-21.44-3.24-6.89-9.7-11.71-17.06-13,.66-1.16,1.22-2.39,1.69-3.67,2.1-5.85,1.8-12.16-.84-17.77-3.24-6.89-9.7-11.71-17.06-13,.66-1.16,1.22-2.38,1.68-3.66,2.1-5.84,1.8-12.16-.84-17.78-3.25-6.89-9.7-11.71-17.08-13,3.62-6.36,4.2-14.33.86-21.44-3.48-7.38-10.64-12.39-18.66-13.22l-2.5-5.3c4-3.88,7.1-8.65,9.04-14.05,1.94-5.4,2.59-11.05,1.98-16.59L147.36,15.11c6.87,7.05,16.43,11.25,26.55,11.25,1.36,0,2.71-.07,4.05-.22l119.29,253.28c-4,3.88-7.1,8.65-9.04,14.05-1.94,5.4-2.6,11.05-1.98,16.59l-121.22,57.09Z"/>
    <path class="cls-1" d="M145.51,29.25c7.23,5.14,15.82,8.32,24.88,8.98l112.73,239.35c-5.19,7.32-8.3,15.95-8.95,24.9l-107.29,50.53c-5.83-4.15-12.55-7.02-19.69-8.32,1.45-7.33.54-14.91-2.71-21.8-2.92-6.2-7.55-11.29-13.17-14.82.86-6.48-.06-13.28-3.05-19.62-2.92-6.19-7.54-11.28-13.15-14.81.89-6.65-.14-13.42-3.07-19.63-2.92-6.19-7.54-11.28-13.15-14.81.89-6.65-.14-13.42-3.07-19.63-2.92-6.2-7.55-11.29-13.17-14.82.86-6.48-.06-13.28-3.05-19.62-2.92-6.2-7.55-11.29-13.17-14.82.86-6.48-.06-13.28-3.05-19.62-2.92-6.19-7.54-11.28-13.15-14.8.89-6.65-.14-13.42-3.07-19.64-3.25-6.9-8.62-12.43-15.11-15.95,3.52-6.28,5.65-13.3,6.18-20.51l107.3-50.53M151.28,0L11.96,65.61c5.88,12.49.53,27.39-11.96,33.27l10.46,22.2c1.55-.73,3.18-1.07,4.78-1.07,4.22,0,8.27,2.39,10.19,6.46,2.65,5.63.23,12.33-5.38,14.97l6.63,14.09c1.55-.73,3.18-1.07,4.78-1.07,4.22,0,8.27,2.39,10.19,6.46,2.65,5.63.23,12.33-5.38,14.97l6.63,14.09c1.55-.73,3.18-1.07,4.78-1.07,4.22,0,8.27,2.39,10.19,6.46,2.65,5.62.23,12.33-5.38,14.97l6.63,14.09c1.55-.73,3.18-1.07,4.78-1.07,4.22,0,8.27,2.39,10.19,6.46,2.65,5.62.23,12.33-5.38,14.97l6.63,14.09c1.55-.73,3.18-1.07,4.78-1.07,4.22,0,8.27,2.39,10.19,6.46,2.65,5.62.23,12.33-5.38,14.97l6.63,14.09c1.55-.73,3.18-1.08,4.79-1.08,4.22,0,8.26,2.38,10.18,6.46,2.65,5.62.23,12.33-5.38,14.97l6.63,14.09c1.55-.73,3.18-1.08,4.79-1.08,4.22,0,8.26,2.38,10.18,6.46,2.65,5.62.23,12.33-5.38,14.97l10.46,22.2c3.44-1.62,7.07-2.39,10.64-2.39,9.38,0,18.37,5.3,22.63,14.35l139.31-65.61c-5.88-12.49-.53-27.39,11.96-33.27L184.55,11.96c-3.44,1.62-7.07,2.39-10.64,2.39-9.38,0-18.37-5.3-22.63-14.35h0Z"/>
  </g>
  <path class="cls-2" d="M68.77,96.97l21.77-10.25,35.84,76.1,57.3-26.99,11.03,23.42-79.07,37.24-46.87-99.51Z"/>
  <rect class="cls-3" x="88.97" y="85.07" width="12" height="269.78" transform="translate(-84.67 61.43) rotate(-25.22)"/>
  <path class="cls-2" d="M126.86,220.31l21.77-10.25,35.84,76.1,57.3-26.99,11.03,23.42-79.07,37.24-46.87-99.51Z"/>
</svg>